<svg width="16" height="18" viewBox="0 0 16 18" fill="none" xmlns="http://www.w3.org/2000/svg">
<path d="M8.91859 14.2786L8.91752 14.2702V14.2798V17.182H6.81796V14.2798H6.82638L6.81688 14.2786C5.08989 14.0574 3.61546 13.38 2.39356 12.2465C1.17201 11.1132 0.561136 9.81431 0.560796 8.34964H2.31817C2.31853 9.62152 2.87276 10.6861 3.9807 11.5432C5.08897 12.4006 6.38467 12.8293 7.86774 12.8293C9.35081 12.8293 10.6384 12.4006 11.7303 11.5432C12.822 10.686 13.3681 9.62151 13.3684 8.34964H15.1747C15.1743 9.84196 14.5635 11.1478 13.3419 12.2672C12.12 13.3869 10.6456 14.0574 8.91859 14.2786ZM7.86774 11.0018C7.00439 11.0018 6.26327 10.7392 5.64431 10.214C5.02534 9.68881 4.71594 9.06696 4.71594 8.34841V3.03921C4.71594 2.293 5.02535 1.66425 5.64429 1.1529C6.26325 0.641535 7.00438 0.385839 7.86774 0.385839C8.73109 0.385839 9.46407 0.641535 10.0667 1.15289C10.6694 1.66424 10.9706 2.29299 10.9706 3.03921V8.34841C10.9706 9.06697 10.6694 9.68882 10.0667 10.214C9.46405 10.7392 8.73108 11.0018 7.86774 11.0018Z" fill="white" stroke="black" stroke-width="0.00245098"/>
</svg>
